<svg width="402" height="402" xmlns="http://www.w3.org/2000/svg" stroke="black">
  <path stroke-width="0.2px" d="M201,1 c 20,20 30,35 30,70 l 0,63 l 170,67 l 0,20 l -170,0 l 0,100 c -2,45 -18,60 -30,81 c -12,-20 -28,-35 -30,-81 l 0,-100 l -170,0 l 0,-20 l 170,-67 l 0,-63 c 0,-35 10,-50 30,-70 z"/>
  
  <path stroke-width="0.2px" d="M191,1 c -20,20 -30,35 -30,70 l 0,58 l -110,42 l 20,-27 l 70,-30 l 0,-43 c 0,-35 10,-50 10,-50 l -100,0 l -10,10 l 0,-30 z" />

  <path stroke-width="0.2px" d="M51,231 l 110,0 l 0,90 c 2,45 18,60 30,81 l -100,0 l 0,-20 l 50,-25 l 0,-110 l -70,0 z"/>

  <clipPath id="myClip">
    <path id="ld" fill="none" stroke-width="40px" d="M211,1 c 20,20 30,35 30,70 l 0,58 l 110,42 l 0,-100 c 0,-35 -10,-70 -50,-70 l -90,0 z"/>
  </clipPath>
  <use clip-path="url(#myClip)" href="#ld" />

  <path stroke-width="0.2px" d="M351,231 l -110,0 l 0,90 c -2,45 -18,60 -30,81 l 100,0 l 0,-20 l -50,-25 l 0,-110 l 70,0 z"/>
</svg>