<?xml version="1.0" standalone="no"?>
<!DOCTYPE svg PUBLIC "-//W3C//DTD SVG 20010904//EN"
 "http://www.w3.org/TR/2001/REC-SVG-20010904/DTD/svg10.dtd">
<svg version="1.0" xmlns="http://www.w3.org/2000/svg"
 width="4096.000000pt" height="2304.000000pt" viewBox="0 0 4096.000000 2304.000000"
 preserveAspectRatio="xMidYMid meet">

<g transform="translate(0.000000,2304.000000) scale(0.100000,-0.100000)"
fill="#000000" stroke="none">
<path d="M22870 17145 l0 -2085 905 0 905 0 0 100 0 100 -805 0 -805 0 0 1985
0 1985 -100 0 -100 0 0 -2085z"/>
<path d="M23200 17315 l0 -1915 740 0 740 0 0 100 0 100 -640 0 -640 0 0 1815
0 1815 -100 0 -100 0 0 -1915z"/>
<path d="M20760 17140 l0 -2080 100 0 100 0 0 1980 0 1980 765 0 765 0 0 100
0 100 -865 0 -865 0 0 -2080z"/>
<path d="M24676 19188 c9 -18 199 -364 422 -768 223 -404 481 -873 574 -1041
l168 -306 0 -1007 0 -1006 95 0 95 0 0 1034 0 1034 -572 1046 -573 1045 -113
1 -113 0 17 -32z"/>
<path d="M25042 19211 c10 -27 1054 -1921 1059 -1921 6 0 1059 1913 1059 1924
0 3 -47 6 -104 6 l-104 0 -411 -744 c-227 -409 -418 -751 -425 -761 -10 -15
-67 84 -430 744 l-419 761 -114 0 c-63 0 -113 -4 -111 -9z"/>
<path d="M27314 19208 c-4 -7 -266 -480 -581 -1052 l-573 -1041 0 -1027 0
-1028 105 0 105 0 0 1003 0 1003 581 1050 c320 577 587 1061 595 1077 l15 27
-120 0 c-83 0 -122 -4 -127 -12z"/>
<path d="M20185 19138 c-3 -29 -35 -384 -70 -788 -77 -873 -585 -6624 -689
-7798 -13 -144 -26 -265 -29 -268 -3 -4 -73 3 -154 15 -257 36 -396 49 -1303
121 -487 39 -1137 90 -1445 115 -2867 228 -2815 225 -3157 225 -628 0 -959
-82 -798 -199 139 -101 663 -213 1280 -275 127 -13 1851 -151 4495 -361 493
-39 766 -55 933 -55 l112 0 0 -29 c0 -29 -3 -31 -85 -56 -130 -39 -344 -128
-479 -198 -304 -158 -546 -338 -787 -584 -458 -469 -739 -1035 -841 -1698 -26
-170 -35 -523 -18 -706 36 -399 144 -776 323 -1124 l55 -108 -56 6 c-32 4
-176 20 -322 36 -400 45 -603 62 -2025 171 -720 55 -1314 102 -1319 103 -4 2
-26 56 -47 121 -152 463 -530 818 -1001 940 -264 68 -564 58 -821 -28 -360
-121 -674 -399 -838 -743 l-40 -83 -52 5 c-29 3 -1022 80 -2207 171 -3752 286
-4110 314 -4355 334 -625 51 -1171 73 -1820 73 -903 0 -1502 -50 -1905 -158
-179 -49 -310 -133 -310 -201 0 -97 135 -196 410 -301 458 -175 1299 -349
2280 -472 570 -72 910 -103 2385 -216 2953 -226 4072 -312 4785 -366 443 -33
815 -62 827 -65 14 -3 38 -31 68 -81 177 -290 453 -513 765 -617 160 -53 240
-67 415 -73 196 -7 327 11 496 67 267 88 493 244 685 471 l39 47 1200 -94
c1460 -113 1696 -130 2035 -149 471 -25 1038 -38 1440 -31 l385 6 120 -65
c363 -197 774 -318 1200 -355 66 -5 150 -10 188 -10 l67 0 0 7690 c0 4230 -2
7690 -4 7690 -3 0 -7 -24 -11 -52z"/>
<path d="M21100 18050 l0 -840 695 0 695 0 0 100 0 100 -595 0 -595 0 0 640 0
640 595 0 595 0 0 100 0 100 -695 0 -695 0 0 -840z"/>
<path d="M21100 16070 l0 -1010 100 0 100 0 0 905 0 905 595 0 595 0 0 105 0
105 -695 0 -695 0 0 -1010z"/>
<path d="M20765 14388 c-3 -8 -5 -55 -3 -104 l3 -89 505 -5 c480 -6 509 -7
583 -28 44 -12 107 -36 142 -53 278 -136 411 -461 392 -954 -10 -243 -56 -439
-134 -575 -49 -84 -152 -187 -231 -232 l-63 -35 68 -39 c37 -21 97 -68 133
-104 160 -159 242 -467 227 -850 -21 -501 -182 -763 -528 -860 -114 -31 -260
-40 -696 -40 l-403 0 0 -95 0 -95 479 0 c524 0 577 4 741 60 303 102 501 343
574 700 30 148 39 269 33 474 -6 228 -21 330 -73 486 -39 118 -83 201 -155
296 l-49 65 60 83 c147 203 208 415 217 764 9 307 -28 540 -115 725 -129 275
-323 424 -642 493 -107 23 -1057 33 -1065 12z"/>
<path d="M22672 14392 c1 -5 270 -493 596 -1084 l592 -1075 0 -1002 0 -1001
95 0 95 0 -1 1033 -1 1032 -576 1050 -577 1050 -114 3 c-63 1 -111 -1 -109 -6z"/>
<path d="M23050 14395 c0 -4 305 -561 840 -1533 119 -217 221 -394 226 -394 8
-1 1063 1908 1064 1925 0 4 -48 6 -106 5 l-105 -3 -422 -762 c-318 -574 -425
-759 -433 -750 -6 7 -197 351 -424 765 l-413 752 -113 0 c-63 0 -114 -2 -114
-5z"/>
<path d="M25316 14358 c-13 -24 -268 -486 -566 -1028 -298 -542 -548 -995
-556 -1007 -12 -19 -14 -187 -14 -1058 l0 -1035 105 0 105 0 0 1008 0 1007
548 990 c302 545 570 1029 596 1078 l48 87 -121 0 -120 0 -25 -42z"/>
<path d="M20760 12310 l0 -1750 100 0 100 0 0 1750 0 1750 -100 0 -100 0 0
-1750z"/>
<path d="M21100 13219 l0 -841 328 5 c363 4 389 8 515 74 88 46 175 139 221
236 82 169 114 447 85 732 -30 297 -128 475 -313 565 -127 62 -189 70 -536 70
l-300 0 0 -841z m695 616 c188 -68 255 -226 257 -600 1 -325 -52 -499 -179
-586 -78 -54 -117 -61 -355 -67 l-218 -4 0 642 0 642 223 -4 c180 -4 231 -8
272 -23z"/>
<path d="M21100 11405 l0 -847 323 5 c357 4 402 11 532 80 200 107 305 364
305 752 0 410 -111 670 -331 779 -122 60 -176 67 -521 73 l-308 5 0 -847z
m698 612 c181 -69 253 -247 253 -622 0 -331 -52 -497 -182 -577 -71 -44 -158
-58 -376 -58 l-193 0 0 641 0 641 228 -4 c179 -4 236 -8 270 -21z"/>
<path d="M20760 9506 l0 -134 698 -5 c753 -4 785 -6 975 -62 499 -145 737
-562 737 -1294 0 -353 -51 -624 -156 -833 -49 -98 -86 -151 -158 -227 -144
-151 -326 -240 -590 -288 -61 -11 -201 -16 -558 -20 l-478 -5 0 -1404 0 -1404
140 0 140 0 0 1270 0 1270 313 0 c172 0 351 5 397 10 633 77 1016 405 1164
998 90 358 94 856 10 1222 -61 267 -186 504 -354 671 -174 172 -400 283 -693
341 -108 21 -137 22 -849 26 l-738 3 0 -135z"/>
<path d="M28285 9634 c-218 -31 -348 -69 -493 -144 -382 -197 -602 -559 -684
-1125 -10 -71 -13 -419 -13 -1635 0 -1711 -3 -1629 65 -1896 144 -560 511
-904 1057 -990 160 -25 458 -15 603 19 252 60 436 160 601 326 231 233 357
525 411 951 19 153 19 3037 0 3190 -53 420 -187 734 -407 955 -163 164 -368
271 -623 326 -74 16 -143 21 -292 24 -107 2 -208 1 -225 -1z m422 -290 c120
-21 207 -50 303 -100 315 -165 500 -497 550 -983 14 -141 14 -2901 0 -3042
-64 -624 -354 -1001 -842 -1094 -300 -57 -630 -6 -845 131 -268 170 -424 453
-490 890 -17 111 -18 223 -18 1589 0 1614 -2 1567 61 1814 124 491 438 770
913 810 117 10 258 4 368 -15z"/>
<path d="M28327 9169 c-163 -17 -322 -78 -429 -164 -72 -58 -171 -188 -214
-280 -69 -150 -106 -307 -124 -530 -13 -160 -13 -2750 0 -2910 45 -551 252
-863 636 -961 191 -48 416 -42 599 17 303 96 476 331 562 759 15 77 17 222 20
1565 4 1564 3 1608 -42 1808 -47 210 -121 354 -249 483 -68 68 -96 89 -176
127 -172 82 -360 110 -583 86z m330 -285 c140 -29 226 -85 301 -197 50 -76 90
-180 116 -308 34 -167 37 -338 33 -1749 -3 -1220 -6 -1396 -20 -1475 -52 -290
-140 -440 -308 -524 -101 -51 -185 -65 -358 -59 -113 4 -147 10 -205 31 -179
67 -281 194 -340 428 -46 181 -47 232 -43 1779 4 1605 0 1512 67 1710 70 212
185 324 372 365 88 19 291 19 385 -1z"/>
<path d="M23800 9486 l0 -145 728 -4 c697 -3 731 -4 820 -24 385 -88 613 -273
737 -598 79 -209 105 -363 112 -675 8 -356 -29 -609 -120 -835 -94 -228 -273
-422 -472 -511 -32 -13 -56 -27 -54 -29 2 -2 36 -20 74 -40 148 -78 255 -167
343 -284 103 -137 172 -294 215 -490 20 -93 21 -127 24 -1068 l4 -973 140 0
140 0 -3 988 c-3 986 -3 987 -26 1096 -59 279 -180 526 -341 698 l-62 66 68
85 c123 153 199 303 261 513 65 216 99 539 88 820 -32 841 -346 1323 -970
1489 -205 55 -246 58 -1003 62 l-703 5 0 -146z"/>
<path d="M31396 9615 c-293 -48 -534 -168 -706 -352 -190 -203 -311 -468 -370
-815 -38 -221 -42 -395 -37 -1843 3 -1206 6 -1405 20 -1500 47 -323 121 -539
251 -734 188 -281 440 -450 774 -521 127 -27 397 -37 541 -21 387 45 679 213
893 512 129 180 210 395 260 689 21 119 22 163 25 878 l4 752 -826 0 -826 0 3
-137 3 -138 688 -3 687 -2 0 -478 c0 -262 -5 -540 -10 -617 -30 -412 -135
-698 -334 -903 -163 -169 -366 -257 -652 -283 -131 -11 -301 -1 -416 26 -393
91 -640 353 -747 793 -57 235 -56 189 -56 1827 l0 1510 23 129 c59 326 153
529 322 696 75 74 183 145 285 188 238 98 620 108 885 21 235 -78 418 -236
532 -462 121 -241 168 -521 168 -1004 l0 -213 136 0 136 0 -5 343 c-4 334 -13
434 -48 592 -66 296 -180 530 -342 701 -181 191 -370 295 -645 355 -129 28
-481 36 -616 14z"/>
<path d="M34655 9614 c-287 -44 -533 -166 -705 -351 -236 -252 -367 -601 -400
-1068 -13 -191 -13 -2755 0 -2940 23 -306 84 -555 185 -756 80 -157 248 -355
385 -451 129 -91 295 -161 473 -200 138 -30 502 -33 640 -5 261 53 458 151
626 312 236 226 361 492 428 907 14 87 17 216 20 851 l4 747 -826 0 -826 0 3
-137 3 -138 688 -3 687 -2 0 -473 c0 -500 -9 -690 -40 -872 -61 -355 -216
-621 -454 -779 -271 -179 -746 -214 -1082 -80 -372 148 -584 501 -634 1054 -8
89 -10 547 -7 1585 4 1592 1 1514 62 1741 119 447 377 697 800 776 93 17 388
17 485 -1 381 -69 632 -282 764 -651 71 -196 95 -378 103 -767 l6 -303 135 0
134 0 -5 343 c-6 420 -27 570 -114 822 -166 477 -511 766 -1006 839 -129 20
-407 20 -532 0z"/>
<path d="M36490 9625 c0 -4 636 -1160 1446 -2629 l204 -369 0 -1408 0 -1409
135 0 135 0 0 1443 0 1442 -804 1465 -803 1465 -157 3 c-86 1 -156 0 -156 -3z"/>
<path d="M37023 9616 c15 -38 1476 -2688 1483 -2689 8 -2 1471 2651 1481 2686
5 16 -5 17 -142 15 l-147 -3 -582 -1050 c-320 -577 -586 -1058 -592 -1068 -8
-15 -114 171 -599 1053 l-588 1070 -160 0 c-130 0 -158 -2 -154 -14z"/>
<path d="M39402 8157 l-812 -1473 0 -1437 0 -1437 150 0 150 0 0 1409 0 1409
44 78 c85 154 1593 2879 1605 2902 l12 22 -169 0 -169 0 -811 -1473z"/>
<path d="M20767 9173 c-4 -3 -7 -1207 -7 -2675 l0 -2668 140 0 140 0 0 2675 0
2675 -133 0 c-74 0 -137 -3 -140 -7z"/>
<path d="M21230 8005 l0 -1175 398 0 c432 0 576 9 717 45 353 89 539 314 617
745 29 159 32 578 5 748 -82 519 -333 758 -840 801 -71 6 -301 11 -513 11
l-384 0 0 -1175z m1035 866 c116 -31 182 -67 251 -135 134 -134 187 -340 187
-726 0 -287 -28 -459 -99 -607 -38 -80 -94 -142 -185 -202 -116 -77 -204 -91
-606 -91 l-303 0 0 896 0 896 338 -4 c306 -5 344 -7 417 -27z"/>
<path d="M31502 9159 c-408 -53 -637 -300 -725 -784 l-22 -120 0 -1520 c0
-1432 1 -1526 18 -1630 48 -284 130 -462 282 -612 159 -157 427 -232 720 -204
280 27 449 112 585 293 72 95 97 142 139 260 72 205 91 408 91 961 l0 387
-595 0 -595 0 0 -135 0 -135 450 0 450 0 0 -314 c0 -431 -22 -588 -107 -766
-44 -92 -133 -185 -213 -222 -79 -37 -192 -58 -317 -58 -373 1 -552 174 -620
600 -15 93 -17 255 -20 1430 -5 1617 -1 1729 77 1943 37 99 76 161 143 225 65
61 97 78 194 103 109 28 348 27 459 -1 213 -55 317 -192 380 -501 13 -64 18
-160 23 -414 l6 -330 140 0 140 0 -1 285 c0 166 -5 327 -13 385 -57 454 -237
724 -553 830 -146 48 -350 66 -516 44z"/>
<path d="M34765 9159 c-413 -56 -634 -292 -727 -774 -21 -109 -22 -130 -25
-1580 -4 -1565 -4 -1601 44 -1815 66 -301 213 -512 428 -615 107 -51 183 -71
331 -86 187 -19 398 12 547 80 181 83 325 259 401 492 69 212 85 389 86 937
l0 392 -595 0 -595 0 0 -135 0 -135 450 0 450 0 0 -314 c0 -222 -4 -349 -15
-428 -58 -440 -236 -618 -620 -618 -376 0 -554 172 -622 601 -17 106 -18 217
-18 1569 0 1355 1 1463 18 1569 34 214 97 361 193 455 97 94 205 126 429 126
120 0 169 -4 231 -20 175 -45 271 -142 338 -341 49 -147 59 -231 65 -579 l6
-325 140 0 140 0 3 190 c10 579 -76 920 -283 1130 -110 112 -230 174 -401 210
-96 20 -303 27 -399 14z"/>
<path d="M23800 6485 l0 -2675 135 0 135 0 0 2675 0 2675 -135 0 -135 0 0
-2675z"/>
<path d="M24260 7965 l0 -1195 428 0 c551 0 665 14 847 99 276 131 418 379
465 813 13 126 13 452 -1 576 -46 427 -189 673 -464 803 -182 85 -296 99 -847
99 l-428 0 0 -1195z m1020 890 c87 -19 186 -62 240 -105 90 -71 164 -240 196
-445 20 -133 23 -505 5 -635 -31 -217 -103 -395 -192 -473 -149 -131 -222
-147 -666 -147 l-323 0 0 916 0 917 333 -6 c254 -4 350 -9 407 -22z"/>
<path d="M24260 5196 l0 -1386 140 0 140 0 0 1245 0 1245 238 0 c257 -1 397
-11 495 -35 222 -57 371 -207 439 -440 l23 -80 3 -967 3 -968 144 0 145 0 0
904 c0 1016 -2 1054 -66 1248 -107 319 -327 511 -684 594 -64 14 -144 18 -547
21 l-473 5 0 -1386z"/>
</g>
</svg>
