<?xml version="1.0" encoding="utf-8" ?>	<!-- Generator: Assembly 2.4 - http://assemblyapp.co -->	<svg version="1.1" xmlns="http://www.w3.org/2000/svg" xmlns:xlink="http://www.w3.org/1999/xlink" width="4096.00" height="2304.00" viewBox="0 0 4096.0 2304.0">		<g id="document" transform="scale(1.0 1.0) translate(2048.0 1151.9999914169312)">			<g>				<path d="M262.554,758.647 C265.435,721.14 63.3793,674.803 -186.968,655.568 L-1548.94,550.916 C-1799.29,531.68 -2006.06,546.598 -2008.94,584.109 C-2011.82,621.616 -1809.76,667.953 -1559.42,687.189 L-197.44,791.841 C52.9067,811.076 259.669,796.158 262.554,758.647 Z " fill="#000000" fill-opacity="1.00" />				<path d="M-622.259,66.3669 C-623.422,80.9648 -544.817,99.2216 -447.386,106.983 L82.6772,149.205 C180.106,156.967 260.609,151.384 261.772,136.786 C262.935,122.188 184.332,103.931 86.8994,96.1705 L-443.161,53.9474 C-540.593,46.1865 -621.096,51.7689 -622.259,66.3669 Z " fill="#000000" fill-opacity="1.00" />				<path d="M-632.59,836.074 C-541.403,835.958 -467.68,762.045 -467.797,670.859 C-467.914,579.672 -541.827,505.945 -633.014,506.065 C-724.201,506.181 -797.924,580.094 -797.807,671.281 C-797.69,762.468 -723.777,836.19 -632.59,836.074 Z " fill="#000000" fill-opacity="1.00" />				<path d="M357.487,196.605 L259.015,-907.317 L163.375,196.854 L357.487,196.605 Z " fill="#000000" fill-opacity="1.00" />				<path d="M262.585,146.17 C68.5552,146.17 -88.5165,303.242 -88.5165,497.271 C-88.5165,691.301 68.5552,848.373 262.585,848.373 L262.585,146.17 Z " fill="#000000" fill-opacity="1.00" />				<path d="M521.152,387.732 L521.152,-909.588 L262.585,-909.588 L262.585,387.732 L521.152,387.732 Z " fill="#ffffff" fill-opacity="1.00" />				<path d="M537.593,-882.556 L537.593,-906.648 L333.477,-906.648 L333.477,-413.425 L356.901,-413.425 L356.901,-882.556 L537.593,-882.556 Z M372.962,-667.733 L537.593,-667.733 L537.593,-691.825 L396.385,-691.825 L396.385,-843.071 L537.593,-843.071 L537.593,-867.163 L372.962,-867.163 L372.962,-667.733 Z M396.385,-628.248 L537.593,-628.248 L537.593,-652.341 L372.962,-652.341 L372.962,-413.425 L396.385,-413.425 L396.385,-628.248 Z M582.431,-414.095 L797.254,-414.095 L797.254,-437.518 L605.854,-437.518 L605.854,-907.317 L582.431,-907.317 L582.431,-414.095 Z M797.254,-477.002 L645.339,-477.002 L645.339,-907.317 L621.916,-907.317 L621.916,-453.579 L797.254,-453.579 L797.254,-477.002 Z M793.908,-906.648 L934.446,-651.671 L934.446,-413.425 L957.2,-413.425 L957.2,-657.694 L820.677,-906.648 L793.908,-906.648 Z M965.9,-725.287 L866.185,-906.648 L838.746,-906.648 L965.231,-676.433 L1091.72,-906.648 L1066.28,-906.648 L965.9,-725.287 Z M997.354,-413.425 L997.354,-651.671 L1138.56,-906.648 L1109.78,-906.648 L972.592,-657.694 L972.592,-413.425 L997.354,-413.425 Z " fill="#000000" fill-opacity="1.00" />				<path d="M428.637,217.474 C511.734,217.474 549.932,167.883 549.932,78.755 C549.932,33.8557 540.55,0.348842 521.116,-23.106 C520.446,-24.4463 518.436,-26.4567 515.755,-29.1372 C517.765,-31.1476 519.106,-33.1581 521.116,-35.8386 C540.55,-59.2934 549.932,-92.8004 549.932,-137.7 C549.932,-226.158 511.734,-276.418 428.637,-276.418 L333.477,-276.418 L333.477,-252.293 L428.637,-252.293 C495.651,-252.293 525.807,-216.106 525.807,-137.7 C525.807,-79.3976 508.384,-43.8803 474.206,-29.8074 C485.599,-24.4463 495.651,-17.0747 503.022,-8.36295 C518.436,11.0711 525.807,39.887 525.807,78.755 C525.807,157.161 495.651,194.019 428.637,194.019 L333.477,194.019 L333.477,217.474 L428.637,217.474 Z M333.477,-236.88 L333.477,177.935 L356.932,177.935 L356.932,-236.88 L333.477,-236.88 Z M428.637,-37.1789 C485.599,-37.1789 510.394,-67.3351 510.394,-137.7 C510.394,-207.394 486.939,-236.88 428.637,-236.88 L373.016,-236.88 L373.016,-37.1789 L428.637,-37.1789 Z M428.637,-212.755 C444.72,-212.755 459.463,-211.415 470.186,-201.363 C480.238,-191.311 486.269,-172.547 486.269,-137.7 C486.269,-107.543 481.578,-87.4392 472.196,-76.0469 C470.186,-72.6962 465.495,-69.3455 459.463,-65.9948 C453.432,-62.6441 442.71,-61.3039 428.637,-61.3039 L396.47,-61.3039 L396.47,-212.755 L428.637,-212.755 Z M428.637,177.935 C486.939,177.935 510.394,147.779 510.394,78.755 C510.394,8.3905 485.599,-21.7657 428.637,-21.7657 L373.016,-21.7657 L373.016,177.935 L428.637,177.935 Z M428.637,2.35926 C444.72,2.35926 458.793,3.69953 469.515,13.7516 C479.568,24.4738 486.269,43.2377 486.269,78.755 C486.269,113.602 480.238,133.036 470.186,143.088 C459.463,153.14 444.72,154.481 428.637,154.481 L396.47,154.481 L396.47,2.35926 L428.637,2.35926 Z M558.644,-276.418 L699.373,-21.0956 L699.373,217.474 L722.158,217.474 L722.158,-27.1268 L585.449,-276.418 L558.644,-276.418 Z M730.869,-94.8108 L631.019,-276.418 L603.543,-276.418 L730.199,-45.8907 L856.855,-276.418 L831.39,-276.418 L730.869,-94.8108 Z M762.366,217.474 L762.366,-21.0956 L903.765,-276.418 L874.949,-276.418 L737.571,-27.1268 L737.571,217.474 L762.366,217.474 Z " fill="#000000" fill-opacity="1.00" />				<path d="M435.731,631.835 C520.608,631.835 561.376,583.048 561.376,492.824 C561.376,448.046 551.351,413.962 531.302,391.239 C509.915,366.511 477.836,354.481 435.731,354.481 L333.477,354.481 L333.477,377.872 L435.731,377.872 C505.237,377.872 537.316,414.63 537.316,492.824 C537.316,572.355 505.237,608.444 435.731,608.444 L372.909,608.444 L372.909,847.036 L396.3,847.036 L396.3,631.835 L435.731,631.835 Z M333.477,847.036 L356.869,847.036 L356.869,393.912 L333.477,393.912 L333.477,847.036 Z M435.731,592.404 C496.549,592.404 521.945,562.998 521.945,492.824 C521.945,422.65 496.549,393.912 435.731,393.912 L372.909,393.912 L372.909,592.404 L435.731,592.404 Z M435.731,417.303 C456.449,417.303 471.821,420.645 482.514,431.338 C492.539,442.031 497.885,460.744 497.885,492.824 C497.885,522.23 493.207,542.28 483.182,553.642 C481.177,555.646 477.167,558.988 471.152,562.998 C465.137,567.008 453.108,569.013 435.731,569.013 L396.3,569.013 L396.3,417.303 L435.731,417.303 Z M818.681,702.678 C818.681,661.91 805.315,629.831 781.255,606.439 C782.591,605.771 783.928,604.434 785.265,603.098 C785.933,601.761 787.27,600.424 787.938,599.756 C807.319,576.365 817.344,541.612 817.344,496.166 C817.344,404.605 777.245,355.817 692.368,355.817 L590.114,355.817 L590.114,379.877 L692.368,379.877 C762.542,379.877 793.953,416.635 793.953,496.166 C793.953,555.646 775.24,592.404 737.814,606.439 C748.507,611.117 757.863,617.132 765.883,624.484 C785.265,643.865 794.621,669.93 794.621,702.678 L794.621,848.373 L818.681,848.373 L818.681,702.678 Z M590.114,848.373 L613.505,848.373 L613.505,395.249 L590.114,395.249 L590.114,848.373 Z M692.368,597.751 C753.185,597.751 777.913,568.345 777.913,496.166 C777.913,424.655 753.185,395.249 692.368,395.249 L629.545,395.249 L629.545,597.751 L692.368,597.751 Z M692.368,419.308 C713.086,419.308 728.457,421.982 739.15,432.675 C749.175,444.036 754.522,463.418 754.522,496.166 C754.522,525.572 749.844,546.29 739.819,558.988 C737.814,560.993 733.804,564.335 727.789,568.345 C721.106,572.355 709.076,574.36 692.368,574.36 L652.937,574.36 L652.937,419.308 L692.368,419.308 Z M779.25,702.678 C779.25,645.87 747.839,613.791 692.368,613.791 L629.545,613.791 L629.545,848.373 L652.937,848.373 L652.937,637.85 L692.368,637.85 C734.472,637.85 755.19,659.237 755.19,702.678 L755.19,848.373 L779.25,848.373 L779.25,702.678 Z M1102.72,494.161 C1102.72,450.72 1093.36,417.303 1074.65,393.244 C1060.61,375.199 1033.88,354.481 985.762,354.481 C937.643,354.481 910.91,375.199 896.875,393.244 C878.162,417.303 868.805,450.72 868.805,494.161 L868.805,706.688 C868.805,750.797 878.162,784.213 896.875,807.605 C910.91,825.65 937.643,847.036 985.762,847.036 C1009.82,847.036 1028.53,841.689 1043.24,833.669 C1057.94,826.318 1067.3,816.293 1074.65,807.605 C1093.36,784.213 1102.72,750.797 1102.72,706.688 L1102.72,494.161 Z M1079.33,706.688 C1079.33,782.208 1046.58,823.645 985.762,823.645 C924.945,823.645 892.197,782.208 892.197,706.688 L892.197,494.161 C892.197,418.64 924.276,377.872 985.762,377.872 C1047.25,377.872 1079.33,418.64 1079.33,494.161 L1079.33,706.688 Z M1063.29,494.161 C1063.29,459.408 1056.6,434.011 1043.24,417.972 C1031.21,401.932 1011.83,393.912 985.762,393.912 C959.697,393.912 940.316,401.932 928.286,417.972 C914.92,434.011 908.236,459.408 908.236,494.161 L908.236,706.688 C908.236,774.189 934.301,807.605 985.762,807.605 C1037.22,807.605 1063.29,774.189 1063.29,706.688 L1063.29,494.161 Z M1039.9,706.688 C1039.9,746.119 1031.21,764.832 1019.85,774.189 C1008.49,783.545 994.45,784.213 985.762,784.213 C975.737,784.213 963.039,783.545 951.678,774.189 C940.316,764.832 931.628,746.119 931.628,706.688 L931.628,494.161 C931.628,456.066 940.316,436.016 951.678,426.66 C963.039,417.303 975.737,417.303 985.762,417.303 C994.45,417.303 1008.49,417.303 1019.85,426.66 C1031.21,436.016 1039.9,456.066 1039.9,494.161 L1039.9,706.688 Z M1374.06,494.829 C1374.06,407.278 1334.63,355.149 1256.43,355.149 C1178.91,355.149 1139.48,407.278 1139.48,494.829 L1139.48,707.356 C1139.48,751.466 1148.83,785.55 1168.21,808.941 C1182.25,826.986 1208.31,847.704 1256.43,847.704 C1304.55,847.704 1331.29,826.986 1345.32,808.941 C1364.7,785.55 1374.06,751.466 1374.06,707.356 L1374.06,607.107 L1234.38,607.107 L1234.38,630.499 L1350.67,630.499 L1350.67,707.356 C1350.67,784.213 1318.59,824.313 1256.43,824.313 C1194.95,824.313 1162.87,784.213 1162.87,707.356 L1162.87,494.829 C1162.87,419.308 1194.28,379.209 1256.43,379.209 C1319.92,379.209 1350.67,419.308 1350.67,494.829 L1350.67,526.24 L1374.06,526.24 L1374.06,494.829 Z M1334.63,494.829 C1334.63,425.323 1307.89,394.58 1256.43,394.58 C1204.97,394.58 1178.91,425.323 1178.91,494.829 L1178.91,707.356 C1178.91,742.777 1185.59,768.174 1198.96,784.213 C1210.99,800.253 1230.37,808.273 1256.43,808.273 C1283.17,808.273 1302.55,800.253 1314.58,784.213 C1327.94,768.174 1334.63,742.777 1334.63,707.356 L1334.63,646.539 L1234.38,646.539 L1234.38,669.93 L1310.57,669.93 L1310.57,707.356 C1310.57,746.787 1301.88,765.5 1291.19,774.857 C1279.82,784.213 1266.46,784.882 1256.43,784.882 C1246.41,784.882 1233.71,784.213 1222.35,774.857 C1210.99,765.5 1202.3,746.787 1202.3,707.356 L1202.3,494.829 C1202.3,459.408 1208.98,440.695 1219.68,430.002 C1229.7,419.977 1243.07,418.64 1256.43,418.64 C1269.8,418.64 1283.17,419.977 1293.86,430.002 C1303.88,440.695 1310.57,459.408 1310.57,494.829 L1310.57,526.24 L1334.63,526.24 L1334.63,494.829 Z M1650.08,494.829 C1650.08,407.278 1610.65,355.149 1532.45,355.149 C1454.93,355.149 1415.49,407.278 1415.49,494.829 L1415.49,707.356 C1415.49,751.466 1424.85,785.55 1444.23,808.941 C1458.27,826.986 1484.33,847.704 1532.45,847.704 C1580.57,847.704 1607.3,826.986 1621.34,808.941 C1640.72,785.55 1650.08,751.466 1650.08,707.356 L1650.08,607.107 L1510.4,607.107 L1510.4,630.499 L1626.69,630.499 L1626.69,707.356 C1626.69,784.213 1594.61,824.313 1532.45,824.313 C1470.97,824.313 1438.89,784.213 1438.89,707.356 L1438.89,494.829 C1438.89,419.308 1470.3,379.209 1532.45,379.209 C1595.94,379.209 1626.69,419.308 1626.69,494.829 L1626.69,526.24 L1650.08,526.24 L1650.08,494.829 Z M1610.65,494.829 C1610.65,425.323 1583.91,394.58 1532.45,394.58 C1480.99,394.58 1454.93,425.323 1454.93,494.829 L1454.93,707.356 C1454.93,742.777 1461.61,768.174 1474.98,784.213 C1487.01,800.253 1506.39,808.273 1532.45,808.273 C1559.18,808.273 1578.57,800.253 1590.6,784.213 C1603.96,768.174 1610.65,742.777 1610.65,707.356 L1610.65,646.539 L1510.4,646.539 L1510.4,669.93 L1586.59,669.93 L1586.59,707.356 C1586.59,746.787 1577.9,765.5 1567.2,774.857 C1555.84,784.213 1542.48,784.882 1532.45,784.882 C1522.43,784.882 1509.73,784.213 1498.37,774.857 C1487.01,765.5 1478.32,746.787 1478.32,707.356 L1478.32,494.829 C1478.32,459.408 1485,440.695 1495.69,430.002 C1505.72,419.977 1519.09,418.64 1532.45,418.64 C1545.82,418.64 1559.18,419.977 1569.88,430.002 C1579.9,440.695 1586.59,459.408 1586.59,494.829 L1586.59,526.24 L1610.65,526.24 L1610.65,494.829 Z M1664.78,355.817 L1805.13,610.449 L1805.13,848.373 L1827.85,848.373 L1827.85,604.434 L1691.51,355.817 L1664.78,355.817 Z M1836.54,536.933 L1736.96,355.817 L1709.56,355.817 L1835.87,585.721 L1962.18,355.817 L1936.79,355.817 L1836.54,536.933 Z M1867.95,848.373 L1867.95,610.449 L2008.97,355.817 L1980.23,355.817 L1843.22,604.434 L1843.22,848.373 L1867.95,848.373 Z " fill="#000000" fill-opacity="1.00" />			</g>		</g>	</svg>